<svg width="142" height="37" viewBox="0 0 142 37" fill="none" xmlns="http://www.w3.org/2000/svg">
<path d="M9.15 9.09998H0V36.95H9.15V9.09998Z" fill="#004254"/>
<path d="M25.2496 36.95H16.0996V9.09998H35.6496C40.3996 9.09998 43.7496 10.9 45.0496 14C45.6996 15.6 45.9496 17.8 45.9496 21.6V37H36.7996V22.5C36.7996 19.65 36.6496 18.7 36.1996 17.85C35.5996 16.9 34.6496 16.6 32.2496 16.6H25.2496V36.95Z" fill="#004254"/>
<path d="M65.4 36.95C59.35 36.95 55.9 35.65 53.8 32.75C52.6 30.95 52 28 52 23.35V22.6C52 17.1 52.7 14.2 54.6 12.3C56.9 9.95 59.95 9.05 65.4 9.05H73.75V0H82.9V37H65.4V36.95ZM73.75 16.6H66.15C61.8 16.6 61.15 17.35 61.15 22.55V23.5C61.15 28.7 61.8 29.45 66.15 29.45H73.75V16.6Z" fill="#004254"/>
<path d="M88.9502 21.6C88.9502 17.85 89.2002 15.65 89.8502 14C91.1502 10.9 94.5502 9.09998 99.2502 9.09998H105.7V16.6H102.65C100.25 16.6 99.3502 16.9 98.7502 17.85C98.3002 18.65 98.1502 19.65 98.1502 22.5V36.95H89.0002V21.6H88.9502Z" fill="#004254"/>
<path d="M124.2 36.95C118.15 36.95 114.65 35.65 112.55 32.75C111.35 30.95 110.75 28 110.75 23.35V22.6C110.75 17.1 111.45 14.2 113.35 12.3C115.65 9.94999 118.7 9.04999 124.15 9.04999H141.65V36.9H124.2V36.95ZM132.55 16.6H124.95C120.6 16.6 119.95 17.35 119.95 22.55V23.5C119.95 28.7 120.6 29.45 124.95 29.45H132.55V16.6Z" fill="#004254"/>
</svg>
