<svg width="169" height="16" viewBox="0 0 169 16" fill="none" xmlns="http://www.w3.org/2000/svg">
<rect width="168" height="16" fill="#024454"/>
<rect x="158" width="10.5" height="16" fill="#FBBB21"/>
<path fill-rule="evenodd" clip-rule="evenodd" d="M139.573 10.0424C139.875 10.4599 140.372 10.6471 141.243 10.6471V10.6543H143.763V5.32715H142.445V6.63014H141.243C140.459 6.63014 140.019 6.75972 139.688 7.09807C139.415 7.37163 139.314 7.78916 139.314 8.58103V8.68902C139.314 9.35851 139.4 9.78324 139.573 10.0424ZM141.351 7.71717H142.445V9.56728H141.351C140.725 9.56728 140.631 9.4593 140.631 8.71061V8.57384C140.631 7.82515 140.725 7.71717 141.351 7.71717ZM133.145 6.63734H131.827V10.6471H133.145V6.63734ZM135.463 10.6471H134.145V6.63734H136.96C137.644 6.63734 138.126 6.8965 138.313 7.34283C138.407 7.5732 138.443 7.88995 138.443 8.43706V10.6543H137.126V8.56664C137.126 8.1563 137.104 8.01953 137.039 7.89715C136.953 7.76037 136.816 7.71717 136.47 7.71717H135.463V10.6471ZM144.634 8.43706C144.634 7.89715 144.67 7.5804 144.764 7.34283C144.951 6.8965 145.44 6.63734 146.117 6.63734H147.046V7.71717H146.607C146.261 7.71717 146.131 7.76037 146.045 7.89715C145.98 8.01233 145.959 8.1563 145.959 8.56664V10.6471H144.641V8.43706H144.634ZM148.032 10.0424C148.334 10.4599 148.838 10.6471 149.709 10.6471V10.6399H152.221V6.63014H149.702C148.917 6.63014 148.478 6.75972 148.147 7.09807C147.873 7.37162 147.772 7.78916 147.772 8.58103V8.68902C147.772 9.35851 147.859 9.78324 148.032 10.0424ZM149.817 7.71717H150.911V9.56728H149.817C149.191 9.56728 149.097 9.45929 149.097 8.71061V8.57383C149.097 7.82515 149.191 7.71717 149.817 7.71717Z" fill="white"/>
</svg>
